<svg width="137" height="34" viewBox="0 0 137 34" fill="none" xmlns="http://www.w3.org/2000/svg">
<g clip-path="url(#clip0_55_2)">
<path d="M57.1934 12.5244C55.338 12.6757 53.5041 12.8255 51.719 12.9707C51.6777 12.2783 51.7083 11.6242 51.5891 10.9992C51.343 9.70929 50.4948 8.86261 49.2875 8.47137C47.2503 7.81114 45.2008 7.80809 43.2217 8.72354C41.8157 9.37459 41.0546 10.9732 41.4015 12.4831C41.6491 13.5575 42.4178 14.2285 43.3546 14.6441C44.5819 15.1897 45.8534 15.6437 47.125 16.0823C48.6884 16.6218 50.258 17.1337 51.6884 17.9911C53.8357 19.2779 55.0308 21.1256 55.2402 23.658C55.5688 27.6545 53.4521 30.9449 49.9202 32.5772C47.7561 33.5767 45.4576 33.9496 43.0964 33.9939C41.1799 34.029 39.2787 33.9144 37.431 33.3459C35.8736 32.866 34.46 32.137 33.3657 30.8945C32.0896 29.4442 31.6112 27.7095 31.6464 25.8114C31.6556 25.3162 31.706 24.8195 31.7686 24.329C31.7824 24.2189 31.9199 24.0462 32.0132 24.037C33.7753 23.872 35.5374 23.7253 37.3011 23.577C37.3485 23.5724 37.3974 23.5893 37.4233 23.5938C37.4233 24.2204 37.3622 24.8363 37.4356 25.4339C37.6327 27.06 38.6429 28.0549 40.1498 28.4966C42.2375 29.1079 44.3511 29.1247 46.4158 28.3682C47.7286 27.8868 48.5936 26.9683 48.7327 25.5149C48.8519 24.2632 48.3476 23.2912 47.3297 22.5714C46.4128 21.9249 45.3674 21.5658 44.3251 21.1944C42.6501 20.5969 40.9568 20.0451 39.3154 19.3651C37.9261 18.7874 36.7219 17.9055 35.8752 16.6141C34.8741 15.0874 34.6434 13.3818 34.8604 11.6304C35.3663 7.57731 37.8039 5.07855 41.536 3.78714C44.9028 2.62258 48.343 2.61036 51.7511 3.63737C54.0756 4.33733 55.8714 5.72655 56.7777 8.06637C57.3324 9.49991 57.4058 10.9854 57.1964 12.5244H57.1934Z" fill="#E9F4E3"/>
<path d="M97.8383 1.12333H103.889C102.652 6.9446 101.422 12.7445 100.18 18.5963C100.831 18.5841 101.401 18.7109 101.969 18.2005C104.813 15.6467 107.613 13.0532 110.222 10.2564C110.321 10.1494 110.493 10.0486 110.632 10.0486C112.834 10.0363 115.038 10.0394 117.24 10.0409C117.286 10.0409 117.332 10.0486 117.44 10.0577C113.89 14.0405 110.094 17.6824 106.085 21.1394C108.351 25.2459 110.607 29.3356 112.889 33.4682C112.71 33.4758 112.599 33.4865 112.489 33.4865C110.502 33.4865 108.515 33.4819 106.53 33.4941C106.258 33.4957 106.129 33.3994 106.007 33.1686C104.392 30.1105 102.759 27.0615 101.149 24.0004C100.994 23.7085 100.829 23.5938 100.505 23.6229C100.164 23.6534 99.8175 23.6458 99.4752 23.6244C99.2108 23.6076 99.1084 23.6871 99.0503 23.9637C98.4084 27.0371 97.7451 30.1074 97.0956 33.1793C97.0528 33.3795 97.0054 33.4926 96.7655 33.4911C94.8933 33.4819 93.0212 33.485 91.1505 33.4834C91.1138 33.4834 91.0772 33.4697 90.987 33.4513C93.2718 22.6723 95.5566 11.8993 97.8414 1.12333H97.8383Z" fill="#E9F4E3"/>
<path d="M133.753 28.463H136.096C135.743 30.1548 135.401 31.8008 135.054 33.4636H127.337C127.628 32.108 127.914 30.7707 128.199 29.4319C128.181 29.4228 128.161 29.4136 128.143 29.4044C128.097 29.4793 128.048 29.5511 128.007 29.6291C126.365 32.7988 123.689 34.1192 120.206 33.9832C118.531 33.9175 116.996 33.4422 115.721 32.3143C114.212 30.9786 113.714 29.2363 113.806 27.2893C113.944 24.3473 115.463 22.3452 118.084 21.1241C119.867 20.2927 121.774 19.9825 123.717 19.9107C125.471 19.8449 127.231 19.8648 128.987 19.8648C129.285 19.8648 129.401 19.793 129.442 19.4797C129.558 18.5948 129.685 17.7145 129.494 16.8235C129.225 15.5672 128.444 14.8061 127.211 14.5463C125.719 14.233 124.292 14.4118 123.034 15.3426C122.176 15.9768 121.668 16.8678 121.313 17.8566C121.27 17.9743 121.233 18.095 121.175 18.2662C119.332 17.8306 117.497 17.3981 115.62 16.9549C115.675 16.7456 115.712 16.5622 115.771 16.3864C116.662 13.7898 118.313 11.8413 120.821 10.7073C124.114 9.21717 127.53 9.04906 130.94 10.1983C133.831 11.1734 135.327 13.3436 135.682 16.3513C135.894 18.1455 135.549 19.8724 135.175 21.604C134.704 23.7788 134.244 25.9551 133.782 28.1313C133.762 28.2276 133.762 28.327 133.75 28.4599L133.753 28.463ZM128.601 23.7574C126.882 23.8124 125.231 23.843 123.582 23.927C122.818 23.9652 122.079 24.17 121.403 24.5536C120.469 25.0839 120.057 25.9092 120.095 26.9607C120.129 27.8807 120.627 28.5165 121.438 28.8848C123.1 29.6367 125.355 29.2317 126.654 27.9495C127.788 26.8308 128.236 25.3804 128.6 23.7574H128.601Z" fill="#E9F4E3"/>
<path d="M77.3409 10.0577C77.1361 11.0557 76.9343 12.0415 76.7372 13.0073C77.3302 12.4419 77.8651 11.8183 78.5085 11.3384C81.0714 9.42502 83.9003 8.94667 86.9049 10.0868C88.9742 10.8723 90.0028 12.5427 90.365 14.6701C90.6676 16.4506 90.4078 18.1944 90.0379 19.932C89.1011 24.3335 88.1673 28.7366 87.2366 33.1396C87.1953 33.3382 87.177 33.4926 86.9003 33.4911C85.0282 33.4789 83.1575 33.485 81.2854 33.4834C81.2487 33.4834 81.2105 33.4712 81.1234 33.4559C81.2854 32.6872 81.4459 31.923 81.6079 31.1604C82.3949 27.4543 83.211 23.7543 83.9507 20.039C84.1295 19.1419 84.1448 18.1883 84.0806 17.2728C83.9813 15.8454 83.0567 14.9055 81.6507 14.6105C79.6058 14.1826 77.7153 14.9819 76.618 16.7425C76.0387 17.6717 75.6842 18.6865 75.458 19.7517C74.512 24.2036 73.5675 28.6556 72.6215 33.1075C72.597 33.219 72.5649 33.3291 72.5298 33.462H66.4441C68.1115 25.6525 69.7743 17.8612 71.4386 10.0577H77.3409Z" fill="#E9F4E3"/>
<path d="M62.2979 33.4697H56.2C57.8368 25.6525 59.469 17.8566 61.1027 10.0532H67.2006C65.5638 17.8673 63.9316 25.6632 62.2979 33.4697Z" fill="#E9F4E3"/>
<path d="M65.6708 3.05176e-05C66.5053 0.0061437 67.2113 0.0978414 67.8333 0.49367C68.9047 1.17529 69.2317 2.20536 69.0774 3.40201C68.8038 5.52176 67.1487 6.81317 64.9708 6.6527C64.3183 6.60532 63.681 6.50292 63.1155 6.1453C61.9723 5.42548 61.549 4.10656 61.9739 2.61036C62.3773 1.1921 63.6229 0.16203 65.1008 0.033653C65.3285 0.0137852 65.5577 0.0061437 65.6723 3.05176e-05H65.6708Z" fill="#E9F4E3"/>
<path d="M15.2218 7.22581C16.4949 7.22581 17.7679 7.23193 19.041 7.22428C20.2071 7.21664 21.095 7.70417 21.7323 8.67616C23.337 11.123 24.9448 13.5667 26.5495 16.012C27.0019 16.7012 26.9515 17.2484 26.3784 17.8306C23.7634 20.4899 21.1424 23.1445 18.529 25.8053C17.8963 26.4502 17.1322 26.7605 16.2366 26.7605C13.9197 26.7605 11.6028 26.7635 9.2859 26.7605C8.59206 26.7605 8.1244 26.3402 8.23291 25.7671C8.28029 25.5149 8.46215 25.2582 8.64861 25.0687C11.0251 22.6738 13.4123 20.2912 15.798 17.9055C16.5545 17.149 16.5912 16.7685 15.9921 15.8775C14.2681 13.3115 12.5442 10.7455 10.8218 8.17947C10.779 8.11681 10.7347 8.05415 10.695 7.98843C10.423 7.5544 10.5865 7.23498 11.0985 7.22887C11.9635 7.2197 12.83 7.22581 13.695 7.22581C14.204 7.22581 14.7129 7.22581 15.2233 7.22581H15.2218Z" fill="#82C65B"/>
<path d="M4.4458 10.8433C5.20994 10.8433 5.97256 10.8509 6.73671 10.8418C7.52837 10.8326 8.11829 11.1489 8.55079 11.8245C9.51362 13.3222 10.5024 14.8016 11.479 16.2901C11.8382 16.8373 11.8091 17.1292 11.3415 17.6029C9.74286 19.226 8.13815 20.8429 6.54567 22.4721C6.10094 22.9275 5.57979 23.1491 4.94708 23.1461C3.55938 23.1384 2.17322 23.143 0.78553 23.1461C0.479871 23.1461 0.186439 23.1201 0.0488923 22.7945C-0.0901826 22.469 0.0886279 22.2428 0.308702 22.0243C1.77892 20.5617 3.24608 19.0945 4.71325 17.6274C5.2726 17.068 5.28941 16.8816 4.8401 16.2137C3.78252 14.6411 2.72188 13.0715 1.67347 11.4928C1.57872 11.3492 1.43254 11.096 1.51453 10.9793C1.6047 10.8509 1.84005 10.8525 2.00358 10.8494C2.81816 10.8356 3.63274 10.8433 4.44732 10.8433H4.4458Z" fill="#82C65B"/>
</g>
<defs>
<clipPath id="clip0_55_2">
<rect width="136.098" height="34" fill="white"/>
</clipPath>
</defs>
</svg>
